<svg width="455" height="519" viewBox="0 0 455 519" fill="none" xmlns="http://www.w3.org/2000/svg"><path d="m184.92 227.797 43.106-25.952 43.107 25.952-43.107 25.951-43.106-25.951z" fill="url(#paint0_radial_1395_17291)"/><path d="m39.249 345.225 43.106-25.952 43.107 25.952-43.107 25.951-43.106-25.951z" fill="url(#paint1_radial_1395_17291)"/><path d="m327.616 97.116 43.106-25.952 43.107 25.952-43.107 25.951-43.106-25.951z" fill="url(#paint2_radial_1395_17291)"/><path d="m327.615 96.939 43.849 25.9v394.129l-43.849-24.613V96.939z" fill="url(#paint3_linear_1395_17291)"/><path d="m184.92 228.601 43.85 25.9v263.331l-43.85-24.613V228.601z" fill="url(#paint4_linear_1395_17291)"/><path d="m39.249 346.029 43.85 25.9v143.906l-43.85-24.613V346.029z" fill="url(#paint5_linear_1395_17291)"/><path d="m327.613 96.94 43.85-25.9 43.849 25.9m-87.699 0 43.85 25.899m-43.85-25.9v395.417l43.85 24.613m0-394.13 43.849-25.9m-43.849 25.9v394.13m43.849-420.03v395.417l-43.849 24.613" stroke="url(#paint6_linear_1395_17291)" stroke-width=".843"/><path d="m184.716 227.437 43.106-25.951 43.107 25.951m-86.213 0 43.106 25.951m-43.106-25.951v265.349l43.106 24.662m0-264.06 43.107-25.951m-43.107 25.951v264.06m43.107-290.011v265.349l-43.107 24.662" stroke="url(#paint7_linear_1395_17291)" stroke-width=".843"/><path fill-rule="evenodd" clip-rule="evenodd" d="M249.824 142.752c.363.121.724.253 1.082.397 7.262 2.918 11.885 9.963 13.642 18.715 1.76 8.763.693 19.388-3.546 29.827s-10.887 18.819-18.269 23.907c-7.365 5.076-15.598 6.951-22.854 4.044l-8.27-3.03a18.75 18.75 0 0 1-1.083-.397c-7.262-2.918-11.885-9.963-13.642-18.715-1.759-8.763-.692-19.387 3.547-29.827 4.238-10.439 10.887-18.819 18.268-23.907 7.365-5.076 15.599-6.951 22.855-4.044l8.27 3.03z" fill="#18181A"/><ellipse cx="226.025" cy="177.764" rx="26.457" ry="40.291" transform="rotate(21.995 226.025 177.764)" fill="#fff"/><path fill-rule="evenodd" clip-rule="evenodd" d="m228.076 158.569 6.174 33.955-28.811-7.202 22.637-26.753zm-20.478 26.057 25.14 6.285-5.387-29.629-19.753 23.344z" fill="#000"/><path d="m201.513 159.98-9.162-1.985 9.162-1.986 1.986-9.162 1.985 9.162 9.163 1.986-9.163 1.985-1.985 9.163-1.986-9.163z" fill="#10BBD5"/><path d="m39.249 345.125 43.85-25.852 43.849 25.852m-87.7 0 43.85 25.852m-43.85-25.852v148.308L83.099 518m0-147.023 43.85-25.852m-43.85 25.852V518m43.85-172.875v148.308L83.098 518" stroke="url(#paint8_linear_1395_17291)" stroke-width=".843"/><path fill-rule="evenodd" clip-rule="evenodd" d="M357.785 13.865c16.952-8.604 38.295-.1 47.788 18.6 8.457 16.662 4.832 36.102-8.034 46.255-1.353 1.068-2.643 2.208-3.962 3.374l-.742.656c-1.569 1.38-3.19 2.775-4.945 4.025a30.996 30.996 0 0 1-3.947 2.388c-16.953 8.604-38.296.1-47.788-18.6-8.397-16.544-4.883-35.823 7.759-46.036 1.276-1.03 2.512-2.117 3.77-3.223l1.029-.903c1.608-1.405 3.265-2.814 5.031-4.081a30.909 30.909 0 0 1 4.041-2.455z" fill="#18181A"/><ellipse cx="375.083" cy="47.942" rx="32.996" ry="37.017" transform="rotate(-26.91 375.083 47.942)" fill="#fff"/><path fill-rule="evenodd" clip-rule="evenodd" d="M44.934 314.261a15.818 15.818 0 0 1-.517-1.441c-1.923-6.301.186-13.342 4.928-19.652 4.755-6.327 12.255-12.069 21.482-15.89 9.103-3.771 18.34-5.03 26.111-3.995 7.75 1.033 14.209 4.381 17.441 9.998.34.591.643 1.205.907 1.843m-70.352 29.137c.207.501.438.987.693 1.458l-.693-1.458zm.693 1.458 3.12 7.437v.003c2.653 6.401 9.13 10.313 17.127 11.655 8.016 1.345 17.749.157 27.331-3.811 9.358-3.876 16.941-9.728 21.685-16.163 4.731-6.418 6.736-13.573 4.551-19.915a16.309 16.309 0 0 0-.343-.906m0 0a15.752 15.752 0 0 0-.623-1.327l.623 1.327zm-.623-1.327-2.698-6.211c-.143-.458-.306-.91-.491-1.357" fill="#18181A"/><path d="M44.417 312.82c.148.486.32.967.517 1.441l.693 1.458 3.12 7.437v.003c2.653 6.401 9.13 10.313 17.127 11.655 8.016 1.345 17.749.157 27.331-3.811 9.358-3.876 16.941-9.728 21.685-16.163 4.731-6.418 6.736-13.573 4.551-19.915a16.309 16.309 0 0 0-.343-.906l-.623-1.327-2.698-6.211a15.83 15.83 0 0 0-1.398-3.2c-3.232-5.617-9.691-8.965-17.44-9.998-7.772-1.035-17.009.224-26.112 3.995-9.227 3.821-16.727 9.563-21.482 15.89-4.742 6.31-6.851 13.351-4.928 19.652z" fill="#18181A"/><path d="M114.178 285.582c4.874 11.768-6.428 27.625-25.243 35.418-18.816 7.792-38.02 4.57-42.894-7.198-4.873-11.768 6.429-27.624 25.244-35.417 18.816-7.793 38.02-4.57 42.893 7.197z" fill="#fff"/><path d="m115.304 289.3-9.163-1.985 9.163-1.985 1.985-9.163 1.986 9.163 9.162 1.985-9.162 1.985-1.986 9.163-1.985-9.163zM391.776 17.283l-9.163-1.985 9.163-1.986 1.985-9.162 1.986 9.162 9.163 1.986-9.163 1.985-1.986 9.163-1.985-9.163z" fill="#10BBD5"/><path d="M453.499 169.076a1.5 1.5 0 0 0-1.561-1.436l-13.489.56a1.5 1.5 0 0 0 .125 2.998l11.99-.499.498 11.99a1.499 1.499 0 1 0 2.997-.125l-.56-13.488zM19.149 471.085l.398 1.446-.398-1.446zM372.38 255.666l-1.104-1.016 1.104 1.016zM1.711 477.435l17.836-4.904-.795-2.893-17.836 4.904.795 2.893zm371.772-220.753 79.621-86.528-2.208-2.031-79.62 86.527 2.207 2.032zM19.547 472.531a751.843 751.843 0 0 0 353.936-215.849l-2.207-2.032A748.837 748.837 0 0 1 18.752 469.638l.795 2.893z" fill="url(#paint9_linear_1395_17291)"/><path fill-rule="evenodd" clip-rule="evenodd" d="m373.129 26.535 17.209 19.125-7.096 25.197-18.223-20.133 8.11-24.19zm.483 2.329-7.233 21.576 16.297 18.006 6.329-22.475-15.393-17.107zM84.498 284.677l16.103 13.365-25.173 16.913-15.134-16.205 24.204-14.073zm-22.302 14.354 13.41 14.36 22.996-15.45-14.225-11.807-22.18 12.897z" fill="#000"/><defs><linearGradient id="paint3_linear_1395_17291" x1="349.332" y1="120.153" x2="349.332" y2="189.156" gradientUnits="userSpaceOnUse"><stop stop-color="#18181A"/><stop offset="1" stop-color="#18181A" stop-opacity="0"/></linearGradient><linearGradient id="paint4_linear_1395_17291" x1="206.637" y1="244.586" x2="206.637" y2="292.101" gradientUnits="userSpaceOnUse"><stop stop-color="#18181A"/><stop offset="1" stop-color="#18181A" stop-opacity="0"/></linearGradient><linearGradient id="paint5_linear_1395_17291" x1="60.966" y1="355.414" x2="60.966" y2="383.31" gradientUnits="userSpaceOnUse"><stop stop-color="#18181A"/><stop offset="1" stop-color="#18181A" stop-opacity="0"/></linearGradient><linearGradient id="paint6_linear_1395_17291" x1="371.463" y1="71.039" x2="370.72" y2="493.929" gradientUnits="userSpaceOnUse"><stop stop-color="#10BBD5"/><stop offset="1" stop-color="#10BBD5" stop-opacity="0"/></linearGradient><linearGradient id="paint7_linear_1395_17291" x1="227.822" y1="201.486" x2="227.822" y2="448.233" gradientUnits="userSpaceOnUse"><stop stop-color="#10BBD5"/><stop offset="1" stop-color="#10BBD5" stop-opacity="0"/></linearGradient><linearGradient id="paint8_linear_1395_17291" x1="82.241" y1="369.948" x2="82.355" y2="406.229" gradientUnits="userSpaceOnUse"><stop stop-color="#10BBD5"/><stop offset=".434" stop-color="#10BBD5" stop-opacity=".34"/><stop offset="1" stop-color="#10BBD5" stop-opacity="0"/></linearGradient><linearGradient id="paint9_linear_1395_17291" x1="325.846" y1="336.836" x2="56.74" y2="546.97" gradientUnits="userSpaceOnUse"><stop stop-color="#10BBD5"/><stop offset="1" stop-color="#10BBD5" stop-opacity="0"/></linearGradient><radialGradient id="paint0_radial_1395_17291" cx="0" cy="0" r="1" gradientUnits="userSpaceOnUse" gradientTransform="rotate(31.143 -316.178 445.96) scale(50.1873 83.3635)"><stop stop-color="#10BBD5"/><stop offset="1" stop-color="#10BBD5" stop-opacity=".3"/></radialGradient><radialGradient id="paint1_radial_1395_17291" cx="0" cy="0" r="1" gradientUnits="userSpaceOnUse" gradientTransform="rotate(31.143 -599.708 243.305) scale(50.1873 83.3635)"><stop stop-color="#10BBD5"/><stop offset="1" stop-color="#10BBD5" stop-opacity=".3"/></radialGradient><radialGradient id="paint2_radial_1395_17291" cx="0" cy="0" r="1" gradientUnits="userSpaceOnUse" gradientTransform="rotate(31.143 -10.358 636.651) scale(50.1873 83.3635)"><stop stop-color="#10BBD5"/><stop offset="1" stop-color="#10BBD5" stop-opacity=".3"/></radialGradient></defs></svg>